<?xml version="1.0" standalone="no"?>
<!DOCTYPE svg PUBLIC "-//W3C//DTD SVG 20010904//EN"
 "http://www.w3.org/TR/2001/REC-SVG-20010904/DTD/svg10.dtd">
<svg version="1.0" xmlns="http://www.w3.org/2000/svg"
 width="105089.159023pt" height="96687.042490pt" viewBox="0 0 105089.159023 96687.042490"
 preserveAspectRatio="xMidYMid meet">
<metadata>
Created by potrace 1.13, written by Peter Selinger 2001-2015
</metadata>
<g transform="translate(0.000000,96687.042490) scale(12.540472,-12.540472)"
fill="#000000" stroke="none">
<path d="M6059 7048 l-2 -13 2 -41 3 -42 -61 -7 -61 -7 0 -29 0 -29 10 0 11 0
117 20 117 21 20 4 21 4 23 -135 24 -135 -9 -8 -9 -9 -395 -71 -395 -71 -270
-45 -270 -46 -220 -41 -220 -40 -7 -7 -8 -7 11 -61 11 -61 19 5 19 5 0 -9 0
-9 50 -278 49 -279 -4 -7 -5 -8 -58 -7 -58 -7 -14 -8 -13 -8 6 -42 5 -42 5 -4
4 -4 53 10 53 10 4 -4 4 -4 90 -511 89 -512 0 -59 0 -59 48 -6 47 -5 75 -15
75 -15 27 0 26 0 6 28 5 27 6 47 6 46 -58 7 -58 7 -15 4 -16 4 -42 232 -43
233 -121 658 -122 658 13 9 13 8 46 6 46 6 10 -10 10 -10 22 0 22 0 16 6 16 6
0 13 0 13 28 6 27 6 265 45 265 46 23 6 22 5 0 -16 0 -16 23 1 22 0 20 8 20 8
0 14 0 14 310 53 310 53 18 -11 19 -11 29 6 29 7 0 15 0 15 18 -4 19 -5 19 14
18 13 -28 168 -28 167 -4 25 -4 25 -10 3 -10 4 0 13 0 14 -12 26 -11 25 -99 0
-98 0 -1 -12z"/>
<path d="M6890 7023 l0 -18 24 -136 24 -137 -5 -26 -5 -26 10 -13 10 -12 97
-560 96 -560 0 -55 0 -55 14 -30 14 -30 80 -480 80 -480 -6 -23 -6 -23 11 -22
10 -22 12 -40 12 -40 -4 -31 -3 -30 -663 87 -663 87 -45 7 -44 6 3 31 2 32
-39 8 -40 8 -8 -12 -8 -13 0 -24 0 -23 -21 5 -20 5 -5 -11 -4 -12 -8 -63 -9
-64 11 -4 11 -4 280 -35 280 -35 145 -20 145 -20 409 -55 410 -55 2 3 3 3 11
67 11 68 -6 10 -6 9 -29 0 -28 0 -13 73 -12 72 1 40 1 39 -10 12 -10 12 -84
499 -84 498 5 22 6 22 -15 28 -16 28 -96 573 -95 572 6 24 6 24 -13 24 -14 23
-25 145 -25 145 -28 3 -27 3 0 -18z"/>
<path d="M6402 5572 l-13 -9 3 -34 3 -34 29 2 30 2 12 5 12 5 -7 33 -7 33 -24
3 -25 2 -13 -8z"/>
<path d="M5681 5451 l-14 -9 7 -37 7 -37 22 6 22 6 13 0 12 0 0 40 0 40 -27 0
-28 0 -14 -9z"/>
<path d="M4990 5095 l-12 -15 6 -24 6 -25 20 -6 19 -6 21 11 20 11 0 22 0 23
-12 12 -12 12 -22 0 -22 0 -12 -15z"/>
<path d="M3852 4923 l-63 -4 2 -189 2 -190 14 -20 14 -20 40 -6 39 -7 0 -10 0
-11 -32 -85 -31 -86 -8 -9 -8 -9 -133 -24 -133 -23 -292 -50 -291 -50 -31 0
-31 0 0 -40 0 -40 34 0 34 0 10 -47 10 -48 7 -48 7 -47 7 -4 6 -4 47 7 47 8 4
-10 3 -9 55 7 56 7 10 6 11 7 -18 103 -17 104 11 3 11 4 279 50 279 51 5 -4 4
-5 19 -102 18 -101 3 -3 3 -3 74 14 75 14 2 3 2 2 -18 99 -18 99 -21 16 -21
16 37 103 38 102 29 -6 28 -6 9 13 8 14 34 -3 34 -3 7 51 7 51 -5 8 -6 9 -55
7 -55 6 0 45 0 44 -40 0 -39 0 -3 128 -3 127 -20 1 -20 0 -63 -3z"/>
<path d="M5055 4640 l-6 -30 6 -10 6 -10 34 0 33 0 6 16 6 16 0 24 0 24 -39 0
-39 0 -7 -30z"/>
<path d="M2283 4570 l-5 -20 -374 0 -374 0 0 15 0 15 -20 0 -20 0 0 -26 0 -26
-30 6 -30 6 0 -50 0 -50 20 0 20 0 0 -10 0 -10 24 -10 24 -9 36 -6 36 -7 0 36
0 36 355 0 355 0 0 -165 0 -165 -355 0 -355 0 0 29 0 30 -10 6 -9 6 -18 -9
-18 -10 -30 -9 -30 -9 4 -20 5 -19 0 -102 1 -103 37 -25 37 -25 15 0 16 0 0
80 0 80 355 0 355 0 0 -80 0 -80 26 0 26 0 29 21 29 20 -6 70 -7 69 37 0 36 0
0 40 0 40 -35 0 -35 0 0 230 0 230 -56 0 -56 0 -5 -20z"/>
<path d="M908 4570 l-3 -9 -77 -3 -78 -3 0 -27 0 -28 55 0 55 0 0 -55 0 -55
27 0 26 0 -7 -352 -7 -353 -10 -3 -9 -4 0 -23 0 -23 8 -4 9 -3 6 -32 7 -33
-95 0 -94 0 -3 43 -3 42 -22 3 -23 3 0 -45 0 -46 -101 0 -101 0 4 39 3 38 -12
12 -12 11 -10 0 -9 0 -6 -15 -5 -15 -56 0 -55 0 0 -34 0 -33 -77 1 -78 1 4
-102 3 -102 -34 -3 -33 -3 -3 -29 -4 -28 9 -8 8 -8 135 19 135 18 30 1 31 0
11 -90 12 -90 6 -10 6 -10 38 0 39 0 29 -6 29 -6 23 -166 22 -167 5 -26 5 -26
-67 -24 -66 -24 6 -60 6 -60 6 -55 6 -56 -127 -16 -127 -16 -7 -8 -8 -9 11
-75 11 -75 60 3 60 4 10 8 11 9 164 22 165 23 8 6 8 7 -16 114 -16 114 -54
390 -55 390 -6 34 -5 34 119 -7 120 -7 76 7 76 7 0 181 0 181 7 337 6 337 26
3 26 3 3 39 3 39 -10 10 -10 10 -10 -24 -10 -24 0 18 -1 17 -10 0 -10 0 0 25
0 25 -64 0 -64 0 -4 -10z"/>
<path d="M6567 4458 l-5 -33 8 -8 7 -8 34 3 34 3 3 38 3 37 -39 0 -40 0 -5
-32z"/>
<path d="M4145 3735 l-80 -12 -3 8 -4 9 -16 0 -15 0 -64 -11 -63 -11 0 -19 0
-19 -22 -5 -23 -5 -255 -45 -255 -46 -17 -5 -18 -5 0 15 0 15 -9 5 -8 5 -62
-10 -61 -11 0 -14 0 -13 -50 -7 -50 -7 0 -5 0 -5 -46 -329 -46 -330 10 -10 11
-11 96 -9 96 -10 6 6 6 6 13 87 13 88 10 55 10 55 9 88 9 88 4 4 5 4 123 -18
123 -18 5 14 6 15 1 56 1 57 -97 15 -97 15 -6 7 -7 7 38 10 39 10 263 47 263
47 6 -6 6 -7 -26 -91 -26 -92 -3 -2 -3 -3 -59 9 -59 10 -8 -8 -8 -8 -7 -67 -7
-68 27 0 27 0 -3 -17 -3 -18 47 -5 47 -6 15 18 15 18 28 -5 28 -5 422 -60 422
-60 15 -6 16 -6 0 -17 0 -16 -60 -424 -60 -424 -5 -6 -5 -5 -461 61 -460 61
-6 6 -6 5 11 83 10 83 -4 4 -4 4 -45 7 -46 7 -7 -11 -6 -11 -11 -80 -10 -80
-20 2 -20 2 -220 31 -220 30 -21 5 -20 4 7 53 8 53 0 26 1 26 -105 13 -105 13
-5 -5 -5 -5 -20 -143 -20 -143 2 -2 3 -3 120 -16 120 -16 440 -60 440 -60 475
-65 475 -65 15 0 16 0 0 18 0 17 7 57 7 58 -22 4 -23 5 -84 11 -84 10 -2 3 -2
2 61 443 61 443 34 -3 34 -3 3 20 4 20 15 120 14 120 20 135 20 135 -7 7 -7 7
-233 31 -233 32 -6 -6 -6 -6 -5 -49 -4 -50 23 -5 24 -5 188 -25 189 -24 5 -6
6 -5 -18 -136 -19 -135 -6 -10 -6 -10 -489 65 -488 65 -4 4 -4 4 32 110 32
110 103 22 103 22 54 -7 54 -7 6 24 7 23 0 31 0 32 -22 6 -23 6 -45 -1 -45 -1
-80 -13z"/>
<path d="M1520 3564 l-35 -24 0 -86 0 -85 33 -19 33 -20 30 0 29 0 0 35 0 35
340 0 340 0 0 -29 0 -29 30 -4 30 -5 29 21 28 20 -1 73 -1 73 -23 22 -23 23
-29 0 -30 0 0 -17 0 -16 -6 -16 -6 -16 -344 0 -344 0 0 45 0 45 -22 0 -23 -1
-35 -25z"/>
<path d="M5575 3567 l-3 -12 -26 -190 -26 -190 -5 -23 -4 -24 -7 -59 -7 -59
32 0 31 0 0 -6 0 -6 -65 -490 -65 -490 0 -29 0 -29 4 0 5 0 427 -56 427 -55
11 -2 11 -2 -3 50 -3 50 -10 27 -11 27 -17 5 -16 4 -358 48 -357 48 -9 6 -10
5 20 125 20 125 43 308 43 307 6 6 6 7 83 -11 83 -11 530 -71 530 -71 31 -5
30 -6 -33 -226 -32 -227 4 -12 4 -13 28 0 28 0 14 -9 14 -9 -24 -202 -23 -202
-61 6 -60 7 -52 6 -52 6 -6 -39 -6 -39 -10 -15 -9 -15 -6 -13 -6 -13 5 -5 5
-6 167 -22 167 -22 9 23 9 24 0 9 0 8 -11 4 -11 4 36 273 36 273 0 19 0 19
-39 0 -40 0 -5 8 -4 7 24 175 23 175 1 18 0 17 15 0 15 0 0 34 0 35 8 4 7 5
170 -24 170 -23 4 -1 3 0 -7 -36 -6 -37 9 -6 10 -6 -59 -445 -58 -445 -1 0 0
0 -45 3 -45 4 0 -30 0 -31 -15 -14 -14 -15 -7 -26 -6 -26 8 0 9 0 100 -15 100
-14 13 -1 12 0 0 30 0 30 -15 0 -15 0 0 4 0 4 20 148 19 149 46 360 46 360 29
214 30 214 0 1 0 1 37 0 38 0 3 43 3 42 -5 0 -5 0 -222 30 -222 31 -8 -8 -7
-8 -7 -52 -7 -53 14 0 13 -1 132 -18 133 -18 5 -5 5 -5 -17 -138 -17 -137 -13
-5 -14 -6 -440 59 -441 59 -10 6 -10 7 17 145 18 146 26 -5 26 -5 175 -23 175
-24 6 6 7 7 6 52 7 52 -33 5 -33 6 -190 26 -190 26 -30 2 -30 1 -7 -45 -7 -45
5 -27 6 -28 -17 -132 -17 -133 -3 -3 -2 -3 -414 56 -413 56 -4 4 -4 4 20 141
20 142 4 4 4 4 294 -40 294 -40 7 7 7 8 7 53 7 52 -12 0 -13 0 -301 40 -301
40 -28 5 -28 5 -4 -13z"/>
<path d="M1502 3017 l-32 -32 0 -17 0 -18 10 0 10 0 0 -175 0 -175 108 0 107
0 23 6 22 6 0 39 0 39 -75 0 -75 0 0 44 0 43 77 7 76 6 279 0 278 0 0 -45 0
-45 -74 0 -75 0 -6 -10 -6 -10 7 -35 6 -35 118 0 118 0 4 188 4 187 -20 23
-19 22 -44 0 -43 0 0 -80 0 -80 -340 0 -339 0 -3 88 -3 87 -30 2 -30 3 -33
-33z"/>
<path d="M3757 2983 l-5 -8 -17 -113 -16 -114 5 -5 6 -6 49 -5 48 -4 13 103
12 104 4 18 5 17 -13 4 -13 4 -37 7 -36 6 -5 -8z"/>
<path d="M630 1858 l-145 -20 -4 -4 -3 -3 7 -86 7 -86 21 3 22 3 0 27 0 26 5
5 5 4 47 5 46 5 6 -31 6 -31 25 -195 25 -195 41 -305 40 -305 12 -7 12 -8 85
0 85 0 12 8 12 8 -54 429 -53 430 -7 75 -6 75 -5 38 -6 37 261 0 261 0 0 -45
0 -45 45 0 45 0 0 45 0 44 76 3 76 3 18 52 18 52 -6 5 -5 6 -441 -1 -441 -2
-145 -19z"/>
<path d="M2030 1851 l0 -30 10 -6 10 -6 0 -25 0 -24 75 0 75 0 0 -45 0 -45 45
0 45 0 0 45 0 45 273 0 274 0 -19 -117 -18 -118 -55 -420 -56 -419 5 -13 5
-13 99 0 100 0 9 13 10 12 67 495 68 495 4 15 4 16 76 -10 76 -9 8 12 8 13 6
60 7 60 -4 5 -5 4 -129 19 -128 20 -472 0 -473 0 0 -29z"/>
<path d="M3615 1780 l-4 -6 -10 -65 -11 -64 0 -6 0 -7 45 -6 45 -7 0 -6 0 -5
-34 -256 -35 -257 -3 -30 -3 -29 160 -22 160 -22 133 -17 132 -18 0 -12 0 -13
23 -6 22 -6 38 0 37 0 0 13 0 12 39 283 38 282 4 4 4 4 153 -21 152 -21 0 -9
0 -8 -110 -391 -110 -391 5 -5 5 -5 14 12 14 12 5 -13 5 -13 9 12 8 12 109
389 109 390 32 -5 32 -5 7 10 6 9 6 71 7 71 -34 5 -34 6 -264 35 -264 35 -17
0 -18 0 -5 -22 -6 -23 -6 -57 -7 -58 36 0 36 0 -5 -37 -6 -38 -28 -213 -29
-213 -5 -6 -6 -5 -248 32 -248 33 -6 6 -7 6 34 249 34 249 3 3 2 3 113 -16
112 -16 5 5 5 4 2 75 3 74 -55 7 -55 8 -133 18 -133 19 -4 -7z"/>
<path d="M5355 1493 l-6 -58 -6 -22 -5 -22 36 -7 37 -6 -7 -21 -7 -22 -93
-329 -93 -330 5 -8 5 -8 19 0 19 0 8 13 7 12 96 340 97 340 74 -3 74 -4 4 -4
4 -3 -22 -118 -21 -117 8 -7 7 -7 51 -6 52 -6 11 77 12 78 6 58 6 57 21 0 21
0 590 -77 590 -76 2 -2 2 -1 -16 -137 -17 -136 5 -5 4 -4 55 -4 55 -3 5 57 5
56 6 7 7 6 219 -31 219 -30 21 0 21 0 12 98 12 97 8 10 7 10 7 28 6 27 -4 0
-5 0 -463 65 -463 64 -636 86 -637 85 -15 0 -15 0 -7 -57z m1930 -333 l207
-30 4 0 4 0 0 -41 0 -41 -32 6 -33 5 -155 21 -155 20 -27 6 -28 6 0 39 0 39 4
0 4 0 207 -30z"/>
</g>
</svg>
